<mxfile host="app.diagrams.net" modified="2021-10-01T08:29:54.415Z" agent="5.0 (Windows NT 10.0; Win64; x64) AppleWebKit/537.36 (KHTML, like Gecko) Chrome/94.0.4606.61 Safari/537.36" etag="TEbpr13CodPM9jw7f9ll" version="15.4.0" type="github">
  <diagram id="R2lEEEUBdFMjLlhIrx00" name="Page-1">
    <mxGraphModel dx="866" dy="522" grid="1" gridSize="10" guides="1" tooltips="1" connect="1" arrows="1" fold="1" page="1" pageScale="1" pageWidth="850" pageHeight="1100" math="0" shadow="0" extFonts="Permanent Marker^https://fonts.googleapis.com/css?family=Permanent+Marker">
      <root>
        <mxCell id="0" />
        <mxCell id="1" parent="0" />
        <mxCell id="LB0KiAC5VvcGfHGtLxsH-61" value="" style="edgeStyle=orthogonalEdgeStyle;rounded=0;orthogonalLoop=1;jettySize=auto;html=1;endArrow=none;endFill=0;" edge="1" parent="1" source="LB0KiAC5VvcGfHGtLxsH-1" target="LB0KiAC5VvcGfHGtLxsH-58">
          <mxGeometry relative="1" as="geometry" />
        </mxCell>
        <mxCell id="LB0KiAC5VvcGfHGtLxsH-1" value="Karyawan&lt;br&gt;" style="html=1;dashed=0;whitespace=wrap;" vertex="1" parent="1">
          <mxGeometry x="90" y="510" width="100" height="40" as="geometry" />
        </mxCell>
        <mxCell id="LB0KiAC5VvcGfHGtLxsH-2" value="Barang&lt;br&gt;" style="html=1;dashed=0;whitespace=wrap;" vertex="1" parent="1">
          <mxGeometry x="450" y="330" width="100" height="40" as="geometry" />
        </mxCell>
        <mxCell id="LB0KiAC5VvcGfHGtLxsH-26" style="edgeStyle=orthogonalEdgeStyle;rounded=0;orthogonalLoop=1;jettySize=auto;html=1;endArrow=none;endFill=0;" edge="1" parent="1" source="LB0KiAC5VvcGfHGtLxsH-3" target="LB0KiAC5VvcGfHGtLxsH-25">
          <mxGeometry relative="1" as="geometry" />
        </mxCell>
        <mxCell id="LB0KiAC5VvcGfHGtLxsH-3" value="Pemasok&lt;br&gt;" style="html=1;dashed=0;whitespace=wrap;" vertex="1" parent="1">
          <mxGeometry x="795" y="320" width="100" height="40" as="geometry" />
        </mxCell>
        <mxCell id="LB0KiAC5VvcGfHGtLxsH-62" value="" style="edgeStyle=orthogonalEdgeStyle;rounded=0;orthogonalLoop=1;jettySize=auto;html=1;endArrow=none;endFill=0;exitX=1;exitY=0.5;exitDx=0;exitDy=0;" edge="1" parent="1" source="LB0KiAC5VvcGfHGtLxsH-5" target="LB0KiAC5VvcGfHGtLxsH-58">
          <mxGeometry relative="1" as="geometry">
            <mxPoint x="330" y="530" as="sourcePoint" />
          </mxGeometry>
        </mxCell>
        <mxCell id="LB0KiAC5VvcGfHGtLxsH-5" value="Transaksi&lt;br&gt;Penjualan&lt;br&gt;" style="html=1;dashed=0;whitespace=wrap;direction=west;" vertex="1" parent="1">
          <mxGeometry x="350" y="510" width="100" height="40" as="geometry" />
        </mxCell>
        <mxCell id="LB0KiAC5VvcGfHGtLxsH-51" value="" style="edgeStyle=orthogonalEdgeStyle;rounded=0;orthogonalLoop=1;jettySize=auto;html=1;endArrow=none;endFill=0;" edge="1" parent="1" source="LB0KiAC5VvcGfHGtLxsH-6" target="LB0KiAC5VvcGfHGtLxsH-50">
          <mxGeometry relative="1" as="geometry" />
        </mxCell>
        <mxCell id="LB0KiAC5VvcGfHGtLxsH-54" value="" style="edgeStyle=orthogonalEdgeStyle;rounded=0;orthogonalLoop=1;jettySize=auto;html=1;endArrow=none;endFill=0;" edge="1" parent="1" source="LB0KiAC5VvcGfHGtLxsH-6">
          <mxGeometry relative="1" as="geometry">
            <mxPoint x="180" y="340" as="targetPoint" />
          </mxGeometry>
        </mxCell>
        <mxCell id="LB0KiAC5VvcGfHGtLxsH-6" value="Transaksi&lt;br&gt;Pembelian&lt;br&gt;" style="html=1;dashed=0;whitespace=wrap;" vertex="1" parent="1">
          <mxGeometry x="130" y="270" width="100" height="40" as="geometry" />
        </mxCell>
        <mxCell id="LB0KiAC5VvcGfHGtLxsH-7" value="Transaksi&lt;br&gt;Pembayaran&lt;br&gt;" style="html=1;dashed=1;whitespace=wrap;" vertex="1" parent="1">
          <mxGeometry x="130" y="410" width="100" height="40" as="geometry" />
        </mxCell>
        <mxCell id="LB0KiAC5VvcGfHGtLxsH-27" style="edgeStyle=orthogonalEdgeStyle;rounded=0;orthogonalLoop=1;jettySize=auto;html=1;endArrow=none;endFill=0;entryX=1;entryY=0.25;entryDx=0;entryDy=0;" edge="1" parent="1" source="LB0KiAC5VvcGfHGtLxsH-25" target="LB0KiAC5VvcGfHGtLxsH-2">
          <mxGeometry relative="1" as="geometry">
            <Array as="points">
              <mxPoint x="655" y="340" />
              <mxPoint x="655" y="340" />
            </Array>
          </mxGeometry>
        </mxCell>
        <mxCell id="LB0KiAC5VvcGfHGtLxsH-25" value="supply&lt;br&gt;" style="rhombus;whiteSpace=wrap;html=1;" vertex="1" parent="1">
          <mxGeometry x="615" y="320" width="80" height="40" as="geometry" />
        </mxCell>
        <mxCell id="LB0KiAC5VvcGfHGtLxsH-38" value="Gudang&lt;br&gt;" style="html=1;whitespace=wrap;" vertex="1" parent="1">
          <mxGeometry x="605" y="510" width="100" height="40" as="geometry" />
        </mxCell>
        <mxCell id="LB0KiAC5VvcGfHGtLxsH-39" style="edgeStyle=orthogonalEdgeStyle;rounded=0;orthogonalLoop=1;jettySize=auto;html=1;endArrow=none;endFill=0;" edge="1" parent="1" source="LB0KiAC5VvcGfHGtLxsH-40" target="LB0KiAC5VvcGfHGtLxsH-38">
          <mxGeometry relative="1" as="geometry" />
        </mxCell>
        <mxCell id="LB0KiAC5VvcGfHGtLxsH-41" style="edgeStyle=orthogonalEdgeStyle;rounded=0;orthogonalLoop=1;jettySize=auto;html=1;endArrow=none;endFill=0;exitX=0.5;exitY=0;exitDx=0;exitDy=0;entryX=0.75;entryY=1;entryDx=0;entryDy=0;" edge="1" parent="1" source="LB0KiAC5VvcGfHGtLxsH-40" target="LB0KiAC5VvcGfHGtLxsH-2">
          <mxGeometry relative="1" as="geometry">
            <mxPoint x="685" y="290" as="sourcePoint" />
            <Array as="points">
              <mxPoint x="655" y="420" />
              <mxPoint x="525" y="420" />
            </Array>
          </mxGeometry>
        </mxCell>
        <mxCell id="LB0KiAC5VvcGfHGtLxsH-40" value="disimpan&lt;br&gt;" style="rhombus;whiteSpace=wrap;html=1;" vertex="1" parent="1">
          <mxGeometry x="615" y="430" width="80" height="40" as="geometry" />
        </mxCell>
        <mxCell id="LB0KiAC5VvcGfHGtLxsH-47" value="" style="edgeStyle=orthogonalEdgeStyle;rounded=0;orthogonalLoop=1;jettySize=auto;html=1;endArrow=none;endFill=0;" edge="1" parent="1" source="LB0KiAC5VvcGfHGtLxsH-45" target="LB0KiAC5VvcGfHGtLxsH-7">
          <mxGeometry relative="1" as="geometry" />
        </mxCell>
        <mxCell id="LB0KiAC5VvcGfHGtLxsH-45" value="mengeluarkan&lt;br&gt;" style="rhombus;whiteSpace=wrap;html=1;" vertex="1" parent="1">
          <mxGeometry x="130" y="340" width="100" height="40" as="geometry" />
        </mxCell>
        <mxCell id="LB0KiAC5VvcGfHGtLxsH-52" value="" style="edgeStyle=orthogonalEdgeStyle;rounded=0;orthogonalLoop=1;jettySize=auto;html=1;endArrow=none;endFill=0;" edge="1" parent="1" source="LB0KiAC5VvcGfHGtLxsH-50" target="LB0KiAC5VvcGfHGtLxsH-2">
          <mxGeometry relative="1" as="geometry" />
        </mxCell>
        <mxCell id="LB0KiAC5VvcGfHGtLxsH-50" value="memerlukan&lt;br&gt;" style="rhombus;whiteSpace=wrap;html=1;dashed=0;" vertex="1" parent="1">
          <mxGeometry x="300" y="330" width="90" height="40" as="geometry" />
        </mxCell>
        <mxCell id="LB0KiAC5VvcGfHGtLxsH-58" value="memeriksa" style="shape=rhombus;html=1;dashed=0;whitespace=wrap;perimeter=rhombusPerimeter;" vertex="1" parent="1">
          <mxGeometry x="235" y="510" width="75" height="40" as="geometry" />
        </mxCell>
      </root>
    </mxGraphModel>
  </diagram>
</mxfile>
